<svg xmlns="http://www.w3.org/2000/svg" viewBox="0 0 58.567 58.567" width="512" height="512"><path d="M56.705 1.21C55.882.386 54.713-.014 53.316 0c-3.64.082-8.905 3.219-13.122 7.813-.752.379-2.931 1.523-3.961 2.553a10.94 10.94 0 0 0-.728.815c-1.225 1.499-1.997 3.257-2.224 5.101-2.188.27-4.261 1.298-5.915 2.952-.251.251-.483.515-.704.784l-.083.105c-1.19 1.482-1.942 3.212-2.165 5.027-1.968.242-3.838 1.102-5.397 2.473-.037.028-.081.042-.114.076-.067.067-.123.136-.188.203-.071.068-.146.13-.216.199-1.653 1.653-2.683 3.727-2.952 5.916-2.189.27-4.262 1.298-5.915 2.951-.113.114-.207.229-.311.344-.029.023-.064.034-.091.061-1.201 1.2-1.941 2.429-2.236 3.669-4.253 4.464-9.166 12.139-5.713 15.593 1.252 1.252 3.362 1.933 5.854 1.933.653 0 1.334-.047 2.031-.143 3.488-.478 6.855-2.118 9.238-4.501l35-35c2.397-2.397 4.144-5.857 4.789-9.493.637-3.579.08-6.652-1.488-8.221zm-.48 7.87c-.576 3.242-2.119 6.314-4.234 8.429l-35 35c-2.08 2.08-5.03 3.514-8.095 3.934-2.664.364-5.094-.115-6.201-1.223-1.642-1.642.367-6.582 4.426-11.335.487 1.462 1.622 2.851 3.406 4.142a1.002 1.002 0 0 0 1.397-.225 1 1 0 0 0-.225-1.396c-1.785-1.291-2.744-2.61-2.849-3.919a3.111 3.111 0 0 1 .015-.57c.213-.278.399-.578.526-.922l.001-.001c.396-1.076.876-1.833 1.653-2.611 1.342-1.342 3.084-2.189 4.857-2.386.408 1.284 1.401 2.822 3.73 4.097a1 1 0 0 0 .961-1.754c-1.743-.955-2.728-2.138-2.925-3.517-.234-1.637.659-3.622 2.438-5.484 1.248-1.174 2.806-1.942 4.408-2.177.282 2.066 1.355 3.799 3.056 4.896a1.004 1.004 0 0 0 1.383-.299 1.001 1.001 0 0 0-.299-1.383c-1.596-1.027-2.07-2.553-2.188-3.65-.196-1.828.454-3.831 1.716-5.408l.018-.024c.181-.224.373-.439.578-.644 1.31-1.31 3-2.153 4.727-2.376.319 2.028 1.393 3.722 3.069 4.788a1.002 1.002 0 0 0 1.381-.307 1 1 0 0 0-.307-1.381c-1.255-.799-2.041-2.107-2.214-3.686-.229-2.085.598-4.293 2.211-5.906.556-.555 1.757-1.285 2.833-1.86a4.99 4.99 0 0 0 .016.891c.203 1.684 1.275 3.156 3.1 4.261a.999.999 0 0 0 1.035-1.71c-.892-.54-1.988-1.462-2.149-2.79-.148-1.226.522-2.623 1.94-4.041.009-.009.011-.021.02-.03 3.169-2.693 6.552-4.447 8.919-4.5l.104-.001c.796 0 1.409.21 1.825.626 1.076 1.07 1.443 3.604.937 6.452z" fill="#FFF"/></svg>