<svg xmlns="http://www.w3.org/2000/svg" viewBox="0 0 470 470" width="512" height="512"><g fill="#FFF"><path d="M401.17 68.83C356.785 24.444 297.771 0 235 0S113.215 24.444 68.83 68.83C24.444 113.216 0 172.229 0 235s24.444 121.785 68.83 166.17C113.215 445.556 172.229 470 235 470s121.785-24.444 166.17-68.83C445.556 356.785 470 297.771 470 235s-24.444-121.784-68.83-166.17zM235 455c-121.309 0-220-98.691-220-220 0-121.308 98.691-220 220-220s220 98.692 220 220c0 121.309-98.691 220-220 220z"/><path d="M262.083 239.737l96.66-96.66a7.5 7.5 0 0 0 0-10.606l-21.213-21.213a7.501 7.501 0 0 0-10.606 0l-76.016 76.016a7.5 7.5 0 0 0 0 10.606 7.5 7.5 0 0 0 10.606 0l70.712-70.713 10.607 10.607-83.83 83.83c-3.971-7.088-10.988-12.243-19.267-13.687l-64.841-64.841a7.5 7.5 0 0 0-10.606 0l-21.213 21.213a7.5 7.5 0 0 0 0 10.606l64.841 64.841a27.314 27.314 0 0 0 3.08 8.661l-78.481 78.481a7.5 7.5 0 0 0 5.303 12.803 7.474 7.474 0 0 0 5.303-2.197l78.481-78.481A27.322 27.322 0 0 0 235 262.499c13.548.001 24.831-9.849 27.083-22.762zm-92.49-80.751l52.01 52.01a27.688 27.688 0 0 0-10.607 10.607l-52.01-52.01 10.607-10.607zM235 247.5c-3.435 0-6.55-1.394-8.811-3.644-2.295-2.306-3.689-5.421-3.689-8.856 0-6.893 5.607-12.5 12.5-12.5s12.5 5.607 12.5 12.5-5.607 12.5-12.5 12.5zm7.5-150v-30a7.5 7.5 0 0 0-15 0v30a7.5 7.5 0 0 0 15 0zM410 235a7.5 7.5 0 0 0-7.5-7.5h-30a7.5 7.5 0 0 0 0 15h30a7.5 7.5 0 0 0 7.5-7.5zM227.5 372.5v30a7.5 7.5 0 0 0 15 0v-30a7.5 7.5 0 0 0-15 0zm-160-145a7.5 7.5 0 0 0 0 15h30a7.5 7.5 0 0 0 0-15h-30z"/><path d="M235 30C121.962 30 30 121.963 30 235c0 113.038 91.962 205 205 205 48.915 0 96.313-17.587 133.465-49.523a7.5 7.5 0 0 0-9.779-11.375C324.255 408.7 280.329 425 235 425c-104.766 0-190-85.234-190-190S130.234 45 235 45s190 85.234 190 190c0 45.329-16.3 89.255-45.898 123.687a7.5 7.5 0 0 0 11.375 9.779C422.413 331.313 440 283.915 440 235c0-113.037-91.962-205-205-205z"/></g></svg>