<svg xmlns="http://www.w3.org/2000/svg" viewBox="0 0 496 496" width="512" height="512"><g fill="#FFF"><path d="M464 360h-48V168c0-22.056-17.944-40-40-40h-32.72c.44-2.608.72-5.272.72-8 0-21.136-13.744-39.08-32.752-45.472C321.936 54.04 343.344 40 368 40V24c-32.76 0-60.952 19.808-73.304 48.064-5.864.16-11.472 1.36-16.632 3.448-4.56-15.728-16.424-26.984-22.256-31.656C252.704 41.368 248.76 40 244.712 40h-1.608c-9.744 0-17.584 7.704-17.832 17.544-.2 7.528-3.952 12.248-11.808 14.864-15.152 5.048-24.504 18.816-22.248 32.728.376 2.296 1.2 4.664 2.36 6.984C170.448 113.392 152 132.552 152 156c0 9.752 3.232 18.744 8.624 26.048l-43.712 13.568C104.4 199.504 96 210.904 96 224v136H32c-17.648 0-32 14.352-32 32s14.352 32 32 32h32v48h368v-48h32c17.648 0 32-14.352 32-32s-14.352-32-32-32zM337.504 144H376c13.232 0 24 10.768 24 24v80c0 13.232-10.768 24-24 24s-24-10.768-24-24v-40h-16v96c0 13.232-10.768 24-24 24s-24-10.768-24-24V200h8c17.648 0 32-14.352 32-32 0-3.68-.688-7.264-1.896-10.672 4.576-3.688 8.432-8.216 11.4-13.328zM400 279.792V328h-56.208c5.08-6.704 8.208-14.96 8.208-24v-24.208c6.704 5.08 14.96 8.208 24 8.208s17.296-3.128 24-8.208zM289.512 88.664C288.544 93.632 288 98.752 288 104v8h16v-8c0-4.936.616-9.72 1.68-14.344C318.576 93.792 328 105.752 328 120c0 17.648-14.352 32-32 32s-32-14.352-32-32c0-15.424 10.968-28.328 25.512-31.336zM196 128h36v-16h-8c-9.68 0-16.024-3.52-16.984-9.424-.856-5.256 2.832-12.096 11.512-14.992 14.288-4.76 22.36-15.288 22.736-29.632.032-1.12.824-1.96 1.84-1.96h1.608c.304 0 .728.056 1.08.336 5.064 4.064 16.208 14.568 17.872 28.296C254.064 93.408 248 105.992 248 120c0 26.472 21.528 48 48 48 5.52 0 10.808-.984 15.752-2.712.152.896.248 1.8.248 2.712 0 8.824-7.176 16-16 16H196c-15.44 0-28-12.56-28-28s12.56-28 28-28zm-74.344 82.896l53.008-16.448A43.638 43.638 0 0 0 196 200h76v16H114.584a13.712 13.712 0 0 1 7.072-5.104zM112 232h160v16H112v-16zm0 32h160v40c0 9.04 3.128 17.296 8.208 24H112v-64zm0 80h288v16H112v-16zm352 64h-64v16h16v32H80v-32h304v-16H32c-8.824 0-16-7.176-16-16s7.176-16 16-16h432c8.824 0 16 7.176 16 16s-7.176 16-16 16z"/><path d="M336 176h16v16h-16zM128 288h16v16h-16zm48 0h16v16h-16zm48 0h16v16h-16z"/></g></svg>