<svg xmlns="http://www.w3.org/2000/svg" viewBox="0 0 55.644 55.644" width="512" height="512"><path d="M54.489 36.114l-5.679.89 5.214-2.503a1 1 0 1 0-.865-1.803L41.947 38.08 7.179 43.531a1.001 1.001 0 0 0 .309 1.977l28.193-4.42L9.986 53.421a1 1 0 1 0 .865 1.802l31.693-15.211L54.8 38.091c.545-.086.918-.598.833-1.144a.997.997 0 0 0-1.144-.833zm-16.191-7.567v-4.079l-.001-.002V7.126l.001-.011-.001-.011v-.016c-.001-.083-.028-.159-.035-.24-.017-.19-.03-.38-.082-.562-.016-.057-.05-.109-.07-.165a3.284 3.284 0 0 0-.258-.596c-.013-.022-.034-.043-.047-.065C35.889 2.325 28.572.584 20.927.35a58.582 58.582 0 0 0-3.558 0C8.558.619.181 2.891.016 6.995c-.001.035-.014.067-.015.103v.007L0 7.111a.05.05 0 0 0 .001.011v21.434c.042 4.441 9.664 6.766 19.148 6.766s19.108-2.324 19.149-6.775zm-21.56-16.695c-4.671-1.227-5.481-3.278-5.489-3.303-.046-.136-.068-.312.117-.584.658-.969 3.184-2.107 7.177-2.316l.188-.01c-1.49.213-2.629.743-3.128 1.479-.31.455-.387.982-.217 1.482.611 1.804 3.788 2.463 6.482 2.331 2.839-.149 5.031-.973 5.864-2.201.381-.563.478-1.208.271-1.819-.821-2.427-5.436-3.479-9.566-3.26-4.197.221-7.541 1.443-8.727 3.191-.502.74-.625 1.551-.366 2.318.052.172.382 1.079 1.595 2.114-5.656-.938-8.926-2.738-8.937-4.151v-.015l.002-.006c.037-2 6.565-4.779 17.147-4.779.662 0 1.308.011 1.938.032 8.8.292 14.384 2.537 15.125 4.358l.005.009c.043.107.058.211.066.315.002.024.014.049.014.072v.015c-.016 2-6.536 4.785-17.148 4.785a62.145 62.145 0 0 1-2.413-.057zm3.34-6.222c3.363.102 5.759 1.116 6.033 1.913-.074.335-1.475 1.239-4.348 1.39-2.348.123-3.874-.459-4.342-.824.319-.198 1.077-.494 2.319-.559a1 1 0 0 0 .338-1.92zM2.001 28.547V10.3c2.867 2.059 8.466 3.254 14.407 3.535l.021.006c.082.021.165.03.246.03.039 0 .074-.014.112-.019a58 58 0 0 0 2.362.054c6.9 0 13.842-1.233 17.148-3.607v6.666c-.098 1.703-3.255 2.731-4.446 3.118a1 1 0 0 0 .618 1.902c.929-.302 2.535-.828 3.828-1.744v.039c-.135 2.496-5.651 3.565-7.73 3.967l-.157.03a1 1 0 0 0 .38 1.963l.156-.03c1.802-.348 5.184-1.011 7.35-2.577v.757c-.117 2.144-3.747 3.642-10.794 4.452l-.244.028a.999.999 0 1 0 .231 1.986l.241-.027c2.624-.302 7.738-.899 10.566-2.99v.696c-.019 1.998-6.551 4.785-17.148 4.785S2.02 30.535 2.001 28.547z" fill="#FFF"/></svg>