<?xml version="1.0" encoding="iso-8859-1"?>
<!-- Generator: Adobe Illustrator 19.0.0, SVG Export Plug-In . SVG Version: 6.00 Build 0)  -->
<svg xmlns="http://www.w3.org/2000/svg" xmlns:xlink="http://www.w3.org/1999/xlink" version="1.1" id="Capa_1" x="0px" y="0px" viewBox="0 0 496 496" style="enable-background:new 0 0 496 496;" xml:space="preserve" width="512px" height="512px">
<g>
	<g>
		<g>
			<path d="M464,360h-48V248v-24v-56c0-22.056-17.944-40-40-40h-32.72c0.44-2.608,0.72-5.272,0.72-8     c0-21.136-13.744-39.08-32.752-45.472C321.936,54.04,343.344,40,368,40V24c-32.76,0-60.952,19.808-73.304,48.064     c-5.864,0.16-11.472,1.36-16.632,3.448c-4.56-15.728-16.424-26.984-22.256-31.656C252.704,41.368,248.76,40,244.712,40h-1.608     c-9.744,0-17.584,7.704-17.832,17.544c-0.2,7.528-3.952,12.248-11.808,14.864c-15.152,5.048-24.504,18.816-22.248,32.728     c0.376,2.296,1.2,4.664,2.36,6.984C170.448,113.392,152,132.552,152,156c0,9.752,3.232,18.744,8.624,26.048l-43.712,13.568     C104.4,199.504,96,210.904,96,224v136H32c-17.648,0-32,14.352-32,32s14.352,32,32,32h32v48h368v-48h32c17.648,0,32-14.352,32-32     S481.648,360,464,360z M337.504,144H376c13.232,0,24,10.768,24,24v56v24c0,13.232-10.768,24-24,24s-24-10.768-24-24v-40h-16v40     v56c0,13.232-10.768,24-24,24s-24-10.768-24-24V200h8c17.648,0,32-14.352,32-32c0-3.68-0.688-7.264-1.896-10.672     C330.68,153.64,334.536,149.112,337.504,144z M400,279.792V328h-56.208c5.08-6.704,8.208-14.96,8.208-24v-24.208     c6.704,5.08,14.96,8.208,24,8.208C385.04,288,393.296,284.872,400,279.792z M289.512,88.664C288.544,93.632,288,98.752,288,104v8     h16v-8c0-4.936,0.616-9.72,1.68-14.344C318.576,93.792,328,105.752,328,120c0,17.648-14.352,32-32,32s-32-14.352-32-32     C264,104.576,274.968,91.672,289.512,88.664z M196,128h36v-16h-8c-9.68,0-16.024-3.52-16.984-9.424     c-0.856-5.256,2.832-12.096,11.512-14.992c14.288-4.76,22.36-15.288,22.736-29.632c0.032-1.12,0.824-1.96,1.84-1.96h1.608     c0.304,0,0.728,0.056,1.08,0.336c5.064,4.064,16.208,14.568,17.872,28.296C254.064,93.408,248,105.992,248,120     c0,26.472,21.528,48,48,48c5.52,0,10.808-0.984,15.752-2.712c0.152,0.896,0.248,1.8,0.248,2.712c0,8.824-7.176,16-16,16H196     c-15.44,0-28-12.56-28-28S180.56,128,196,128z M121.656,210.896l53.008-16.448C180.984,197.976,188.256,200,196,200h76v16     H114.584C116.28,213.64,118.712,211.816,121.656,210.896z M112,232h160v16H112V232z M112,264h160v40     c0,9.04,3.128,17.296,8.208,24H112V264z M112,344h288v16H112V344z M464,408h-64v16h16v32H80v-32h304v-16H32     c-8.824,0-16-7.176-16-16c0-8.824,7.176-16,16-16h64h320h48c8.824,0,16,7.176,16,16C480,400.824,472.824,408,464,408z" fill="#FFFFFF"/>
			<rect x="336" y="176" width="16" height="16" fill="#FFFFFF"/>
			<rect x="128" y="288" width="16" height="16" fill="#FFFFFF"/>
			<rect x="176" y="288" width="16" height="16" fill="#FFFFFF"/>
			<rect x="224" y="288" width="16" height="16" fill="#FFFFFF"/>
		</g>
	</g>
</g>
<g>
</g>
<g>
</g>
<g>
</g>
<g>
</g>
<g>
</g>
<g>
</g>
<g>
</g>
<g>
</g>
<g>
</g>
<g>
</g>
<g>
</g>
<g>
</g>
<g>
</g>
<g>
</g>
<g>
</g>
</svg>
